<svg width="17" height="17" viewBox="0 0 17 17" fill="none" xmlns="http://www.w3.org/2000/svg">
<rect x="1" y="1" width="15" height="15" rx="7.5" stroke="#343A40" stroke-width="1.5"/>
<path fill-rule="evenodd" clip-rule="evenodd" d="M13.1875 14.125C13.1875 14.125 14.125 14.125 14.125 13.1875C14.125 12.25 13.1875 9.4375 8.5 9.4375C3.8125 9.4375 2.875 12.25 2.875 13.1875C2.875 14.125 3.8125 14.125 3.8125 14.125H13.1875ZM3.81719 13.24V13.2381V13.24ZM3.83313 13.1875H13.1669C13.1713 13.187 13.1756 13.1864 13.18 13.1856L13.1875 13.1838C13.1866 12.9531 13.0431 12.2594 12.4075 11.6237C11.7963 11.0125 10.6459 10.375 8.5 10.375C6.35313 10.375 5.20375 11.0125 4.5925 11.6237C3.95688 12.2594 3.81437 12.9531 3.8125 13.1838C3.81936 13.1851 3.82624 13.1863 3.83313 13.1875ZM13.1838 13.24V13.2381V13.24ZM8.5 7.5625C8.99728 7.5625 9.47419 7.36496 9.82582 7.01333C10.1775 6.66169 10.375 6.18478 10.375 5.6875C10.375 5.19022 10.1775 4.71331 9.82582 4.36167C9.47419 4.01004 8.99728 3.8125 8.5 3.8125C8.00272 3.8125 7.52581 4.01004 7.17417 4.36167C6.82254 4.71331 6.625 5.19022 6.625 5.6875C6.625 6.18478 6.82254 6.66169 7.17417 7.01333C7.52581 7.36496 8.00272 7.5625 8.5 7.5625ZM11.3125 5.6875C11.3125 6.43342 11.0162 7.14879 10.4887 7.67624C9.96129 8.20368 9.24592 8.5 8.5 8.5C7.75408 8.5 7.03871 8.20368 6.51126 7.67624C5.98382 7.14879 5.6875 6.43342 5.6875 5.6875C5.6875 4.94158 5.98382 4.22621 6.51126 3.69876C7.03871 3.17132 7.75408 2.875 8.5 2.875C9.24592 2.875 9.96129 3.17132 10.4887 3.69876C11.0162 4.22621 11.3125 4.94158 11.3125 5.6875Z" fill="#343A40"/>
</svg>
