<?xml version="1.0" standalone="no"?>
<!DOCTYPE svg PUBLIC "-//W3C//DTD SVG 20010904//EN"
 "http://www.w3.org/TR/2001/REC-SVG-20010904/DTD/svg10.dtd">
<svg version="1.0" xmlns="http://www.w3.org/2000/svg"
 width="1024.000000pt" height="1024.000000pt" viewBox="0 0 1024.000000 1024.000000"
 preserveAspectRatio="xMidYMid meet">

<g transform="translate(0.000000,1024.000000) scale(0.100000,-0.100000)"
fill="#000000" stroke="none">
<path d="M4920 9503 c-679 -32 -1406 -244 -2000 -586 -719 -413 -1355 -1100
-1716 -1852 -72 -151 -178 -417 -224 -560 -80 -253 -153 -621 -181 -910 -16
-165 -16 -600 0 -770 101 -1073 615 -2099 1406 -2804 606 -542 1278 -884 2040
-1041 523 -108 1107 -118 1630 -30 988 168 1941 719 2594 1500 568 679 910
1493 992 2360 15 158 15 606 0 770 -53 566 -185 1029 -444 1547 -192 383 -408
693 -704 1011 -500 536 -1119 925 -1846 1161 -470 153 -1039 228 -1547 204z
m548 -403 c1171 -88 2294 -732 2935 -1685 372 -552 600 -1176 669 -1835 20
-194 15 -606 -10 -812 -116 -956 -571 -1837 -1270 -2461 -624 -557 -1386 -903
-2197 -996 -484 -56 -960 -26 -1431 89 -502 123 -1038 382 -1441 697 -283 220
-543 482 -772 777 -82 106 -235 343 -312 484 -225 413 -389 929 -451 1422 -20
164 -17 709 5 880 88 662 271 1161 622 1695 418 636 1017 1135 1726 1438 610
260 1228 359 1927 307z"/>
<path d="M3104 7992 c-22 -11 -55 -37 -72 -58 -88 -106 -183 -377 -241 -685
-16 -83 -41 -245 -41 -264 0 -2 -37 -42 -83 -88 -247 -248 -411 -566 -472
-912 -22 -123 -25 -412 -6 -529 59 -360 252 -699 529 -929 72 -60 245 -180
274 -189 9 -3 3 -28 -21 -89 -140 -352 -247 -803 -290 -1224 -18 -174 -18
-248 1 -277 31 -47 115 -49 157 -4 19 20 24 48 41 208 38 364 96 656 191 955
43 136 121 333 132 333 6 0 53 -16 106 -34 384 -138 870 -212 1471 -223 326
-6 516 3 800 38 266 33 617 110 773 169 28 11 55 20 59 20 3 0 27 -39 53 -87
37 -69 43 -89 33 -98 -7 -7 -69 -64 -138 -127 l-125 -114 -60 19 c-94 30 -266
34 -383 8 -219 -48 -395 -169 -480 -330 -32 -59 -72 -188 -72 -231 0 -19 -25
-47 -115 -124 -128 -111 -162 -153 -182 -228 -17 -68 -17 -74 8 -153 24 -80
74 -135 156 -172 47 -22 65 -25 119 -20 90 7 135 33 291 167 88 76 182 145
257 191 408 245 646 452 646 561 0 23 19 43 217 225 l92 84 63 -49 c337 -262
801 -311 1176 -123 279 140 476 370 577 674 45 137 59 240 52 400 -13 312
-150 585 -398 790 -144 119 -305 204 -452 238 l-59 14 7 72 c14 153 -33 429
-104 608 -73 184 -200 375 -333 501 l-74 70 -18 125 c-53 365 -164 701 -273
829 -66 77 -164 101 -249 60 -70 -34 -286 -222 -514 -447 -229 -227 -223 -222
-306 -203 -75 17 -378 49 -579 61 -226 13 -517 7 -764 -16 -164 -15 -428 -52
-444 -62 -5 -3 -115 100 -245 229 -224 221 -399 375 -485 427 -54 33 -148 38
-203 13z m241 -311 c50 -41 203 -187 342 -324 226 -225 255 -250 285 -251 18
0 101 12 183 26 83 15 178 30 213 34 l62 7 0 -84 c0 -131 -19 -313 -46 -449
-117 -594 -446 -1036 -894 -1203 -169 -63 -278 -81 -495 -81 -199 1 -315 14
-492 56 l-92 22 -11 50 c-18 81 -23 272 -11 376 42 339 189 639 444 907 l113
118 23 155 c43 288 106 518 186 682 l38 77 31 -22 c17 -12 72 -55 121 -96z
m3438 24 c70 -142 137 -390 180 -673 l23 -149 90 -89 c185 -183 308 -392 371
-631 21 -79 27 -129 30 -259 l5 -161 -103 -6 c-463 -28 -874 -368 -995 -822
-23 -86 -27 -121 -28 -255 0 -85 1 -177 4 -204 l5 -49 -70 -24 c-102 -35 -320
-88 -475 -117 -296 -54 -572 -77 -940 -77 -730 0 -1323 107 -1735 313 -299
150 -490 333 -620 595 -30 59 -52 109 -50 111 2 2 43 -5 92 -16 154 -36 243
-45 428 -45 406 0 696 102 981 344 328 278 545 690 623 1179 22 136 44 398 39
470 l-2 45 64 6 c248 25 793 -7 1100 -63 196 -37 151 -60 447 233 294 291 471
445 490 426 6 -7 27 -43 46 -82z m917 -2245 c219 -62 419 -217 525 -405 185
-328 146 -719 -101 -1010 -100 -117 -270 -221 -439 -266 -169 -45 -405 -25
-569 50 -234 106 -417 327 -488 591 -30 110 -32 319 -4 420 91 332 370 589
696 639 101 15 292 6 380 -19z m-1582 -1862 c71 -26 107 -58 98 -85 -10 -31
-169 -179 -266 -248 -99 -71 -239 -157 -301 -185 -58 -26 -129 -26 -161 0 -39
30 -51 71 -46 150 12 158 131 297 310 360 122 43 265 46 366 8z"/>
<path d="M3496 6205 c-44 -15 -100 -66 -124 -110 -23 -44 -20 -140 5 -190 44
-84 107 -119 204 -113 56 3 76 9 110 33 97 69 117 212 43 311 -29 40 -117 84
-163 84 -20 -1 -53 -7 -75 -15z"/>
<path d="M6035 6205 c-57 -20 -121 -93 -134 -154 -14 -65 -4 -114 33 -169 42
-61 101 -92 178 -92 124 0 208 83 209 207 1 70 -9 99 -53 148 -60 69 -145 91
-233 60z"/>
<path d="M4684 5589 c-24 -12 -44 -49 -44 -80 0 -21 56 -139 109 -228 26 -44
31 -59 23 -76 -20 -44 -114 -145 -176 -190 -35 -25 -67 -52 -70 -61 -24 -63
16 -124 82 -124 48 0 97 34 205 140 42 43 77 75 77 71 0 -13 135 -148 179
-179 54 -39 98 -42 135 -7 19 17 26 34 26 60 0 38 -6 46 -97 122 -54 45 -153
169 -153 191 0 8 8 26 19 40 10 15 39 69 65 119 54 108 58 148 20 184 -25 23
-30 24 -202 26 -110 1 -185 -2 -198 -8z"/>
<path d="M7414 5140 c-23 -12 -46 -32 -53 -46 -7 -15 -11 -86 -11 -184 l0
-160 -155 0 c-120 0 -163 -4 -185 -15 -79 -41 -79 -179 0 -220 22 -11 65 -15
185 -15 l155 0 0 -162 c0 -185 10 -216 75 -244 44 -18 59 -18 102 3 60 28 73
71 73 251 l0 152 160 0 160 0 35 33 c63 57 54 153 -17 197 -29 18 -50 20 -185
20 -139 0 -153 2 -154 18 0 9 -2 84 -4 165 -4 166 -11 188 -70 213 -46 19 -62
18 -111 -6z"/>
<path d="M4158 3610 c-9 -6 -30 -33 -47 -61 -80 -129 -273 -266 -496 -350 -64
-24 -120 -52 -132 -66 -34 -36 -31 -87 6 -124 38 -37 68 -37 182 1 188 63 381
181 514 315 124 125 154 208 96 266 -23 22 -39 29 -68 29 -21 0 -45 -5 -55
-10z"/>
</g>
</svg>
