<svg width="20" height="20" viewBox="0 0 20 20" fill="none" xmlns="http://www.w3.org/2000/svg">
<path d="M7.83105 0.505859C9.75097 0.431871 11.6281 1.08533 13.0869 2.33594C14.5457 3.58677 15.479 5.3428 15.6992 7.25195C15.9194 9.16118 15.4103 11.0836 14.2744 12.6338L13.9814 13.0342L14.3799 13.3301C14.4147 13.356 14.4424 13.3805 14.4658 13.4043L14.4678 13.4062L19.2803 18.2197V18.2188C19.4209 18.3595 19.5001 18.551 19.5 18.75C19.4999 18.9489 19.4209 19.1397 19.2803 19.2803C19.1396 19.4208 18.9488 19.4999 18.75 19.5C18.5511 19.4999 18.3594 19.421 18.2188 19.2803L13.6836 14.7441L14.458 14.1768H12.335C12.6931 13.9277 13.0309 13.6488 13.3408 13.3389C14.0255 12.654 14.5689 11.841 14.9395 10.9463C15.3101 10.0514 15.501 9.09163 15.501 8.12305C15.5009 6.16716 14.7236 4.29129 13.3408 2.9082C11.9578 1.52502 10.0818 0.748089 8.12598 0.748047C6.17005 0.748047 4.29416 1.52498 2.91113 2.9082C1.52822 4.29131 0.751103 6.16708 0.750977 8.12305C0.750977 9.09163 0.94189 10.0514 1.3125 10.9463C1.68311 11.8411 2.22638 12.654 2.91113 13.3389C3.59593 14.0238 4.40897 14.5668 5.30371 14.9375C6.19846 15.3082 7.1575 15.499 8.12598 15.499C9.0944 15.499 10.0535 15.3081 10.9482 14.9375C11.3402 14.7751 11.7146 14.5766 12.0713 14.3506L12.2207 14.5547C10.7502 15.4919 8.99918 15.9018 7.25684 15.7021C5.34789 15.4833 3.59158 14.5518 2.33984 13.0938C1.08814 11.6356 0.433298 9.75833 0.505859 7.83789C0.578474 5.91738 1.37317 4.09479 2.73145 2.73535C4.08969 1.376 5.91101 0.579873 7.83105 0.505859Z" fill="#343A40" stroke="#343A40"/>
</svg>
