<svg width="24" height="24" viewBox="0 0 24 24" fill="none" xmlns="http://www.w3.org/2000/svg">
<g clip-path="url(#clip0_246_3973)">
<path fill-rule="evenodd" clip-rule="evenodd" d="M11.907 3.02402C11.8727 3.04459 11.8447 3.07416 11.826 3.10952L1.54054 20.61C1.51492 20.6511 1.50109 20.6984 1.50056 20.7468C1.50003 20.7953 1.51282 20.8429 1.53754 20.8845C1.56154 20.9295 1.59304 20.9595 1.61854 20.9745C1.64104 20.9895 1.66954 21 1.71754 21H22.287C22.3218 21.0013 22.3562 20.9924 22.386 20.9745C22.4207 20.952 22.4491 20.921 22.4685 20.8845C22.493 20.8428 22.5056 20.7951 22.5048 20.7466C22.504 20.6982 22.4899 20.651 22.464 20.61L12.18 3.10952C12.1614 3.07416 12.1333 3.04459 12.099 3.02402C12.0696 3.0079 12.0366 2.99963 12.003 3.00002C11.9695 2.99963 11.9364 3.0079 11.907 3.02402ZM13.473 2.34902C13.3246 2.09037 13.1105 1.87547 12.8524 1.72603C12.5942 1.57659 12.3013 1.49789 12.003 1.49789C11.7048 1.49789 11.4118 1.57659 11.1537 1.72603C10.8956 1.87547 10.6815 2.09037 10.533 2.34902L0.247541 19.8495C-0.437959 21.0165 0.384041 22.5 1.71754 22.5H22.287C23.6205 22.5 24.444 21.015 23.757 19.8495L13.473 2.34902Z" fill="black"/>
<path d="M10.5031 18C10.5031 17.803 10.5419 17.608 10.6172 17.426C10.6926 17.244 10.8031 17.0786 10.9424 16.9393C11.0817 16.8 11.247 16.6896 11.429 16.6142C11.611 16.5388 11.8061 16.5 12.0031 16.5C12.2 16.5 12.3951 16.5388 12.5771 16.6142C12.7591 16.6896 12.9244 16.8 13.0637 16.9393C13.203 17.0786 13.3135 17.244 13.3889 17.426C13.4643 17.608 13.5031 17.803 13.5031 18C13.5031 18.3978 13.345 18.7793 13.0637 19.0607C12.7824 19.342 12.4009 19.5 12.0031 19.5C11.6052 19.5 11.2237 19.342 10.9424 19.0607C10.6611 18.7793 10.5031 18.3978 10.5031 18ZM10.6501 8.99249C10.6301 8.80325 10.6501 8.61193 10.7089 8.43093C10.7676 8.24994 10.8637 8.08331 10.991 7.94187C11.1183 7.80043 11.2739 7.68733 11.4478 7.60992C11.6216 7.5325 11.8098 7.49249 12.0001 7.49249C12.1903 7.49249 12.3785 7.5325 12.5523 7.60992C12.7262 7.68733 12.8818 7.80043 13.0091 7.94187C13.1364 8.08331 13.2325 8.24994 13.2913 8.43093C13.35 8.61193 13.37 8.80325 13.3501 8.99249L12.8251 14.253C12.8074 14.4597 12.7129 14.6522 12.5601 14.7924C12.4073 14.9327 12.2075 15.0106 12.0001 15.0106C11.7926 15.0106 11.5928 14.9327 11.44 14.7924C11.2872 14.6522 11.1927 14.4597 11.1751 14.253L10.6501 8.99249Z" fill="black"/>
</g>
<defs>
<clipPath id="clip0_246_3973">
<rect width="24" height="24" fill="white"/>
</clipPath>
</defs>
</svg>
