<svg width="15" height="15" viewBox="0 0 15 15" fill="none" xmlns="http://www.w3.org/2000/svg">
<path d="M3.07175 10.7563C3.66336 10.3094 4.32458 9.95703 5.05539 9.69922C5.78621 9.44141 6.55183 9.3125 7.35224 9.3125C8.15266 9.3125 8.91828 9.44141 9.6491 9.69922C10.3799 9.95703 11.0411 10.3094 11.6327 10.7563C12.0387 10.2865 12.3549 9.75365 12.5811 9.15781C12.8073 8.56198 12.9204 7.92604 12.9204 7.25C12.9204 5.72604 12.3781 4.42839 11.2934 3.35703C10.2088 2.28568 8.89508 1.75 7.35224 1.75C5.80941 1.75 4.49568 2.28568 3.41106 3.35703C2.32643 4.42839 1.78412 5.72604 1.78412 7.25C1.78412 7.92604 1.89722 8.56198 2.12343 9.15781C2.34963 9.75365 2.66574 10.2865 3.07175 10.7563ZM7.35224 7.9375C6.66783 7.9375 6.09072 7.70547 5.62091 7.24141C5.1511 6.77734 4.91619 6.20729 4.91619 5.53125C4.91619 4.85521 5.1511 4.28516 5.62091 3.82109C6.09072 3.35703 6.66783 3.125 7.35224 3.125C8.03666 3.125 8.61377 3.35703 9.08358 3.82109C9.55339 4.28516 9.7883 4.85521 9.7883 5.53125C9.7883 6.20729 9.55339 6.77734 9.08358 7.24141C8.61377 7.70547 8.03666 7.9375 7.35224 7.9375ZM7.35224 14.125C6.38942 14.125 5.4846 13.9445 4.63778 13.5836C3.79097 13.2227 3.05435 12.7328 2.42794 12.1141C1.80152 11.4953 1.30561 10.7677 0.940202 9.93125C0.574794 9.09479 0.39209 8.20104 0.39209 7.25C0.39209 6.29896 0.574794 5.40521 0.940202 4.56875C1.30561 3.73229 1.80152 3.00469 2.42794 2.38594C3.05435 1.76719 3.79097 1.27734 4.63778 0.916406C5.4846 0.555469 6.38942 0.375 7.35224 0.375C8.31507 0.375 9.21989 0.555469 10.0667 0.916406C10.9135 1.27734 11.6501 1.76719 12.2766 2.38594C12.903 3.00469 13.3989 3.73229 13.7643 4.56875C14.1297 5.40521 14.3124 6.29896 14.3124 7.25C14.3124 8.20104 14.1297 9.09479 13.7643 9.93125C13.3989 10.7677 12.903 11.4953 12.2766 12.1141C11.6501 12.7328 10.9135 13.2227 10.0667 13.5836C9.21989 13.9445 8.31507 14.125 7.35224 14.125Z" fill="#343A40"/>
</svg>
