<svg width="10" height="10" viewBox="0 0 10 10" fill="none" xmlns="http://www.w3.org/2000/svg">
<path d="M4.64307 6.53841H5.35735V3.46149H4.64307V6.53841Z" fill="#9C283D"/>
<path d="M5.00007 8.46165C5.07042 8.46165 5.14008 8.44672 5.20508 8.41773C5.27007 8.38874 5.32913 8.34624 5.37888 8.29267C5.42862 8.2391 5.46808 8.1755 5.495 8.1055C5.52193 8.03551 5.53578 7.96049 5.53578 7.88472C5.53578 7.80896 5.52193 7.73394 5.495 7.66394C5.46808 7.59395 5.42862 7.53035 5.37888 7.47678C5.32913 7.42321 5.27007 7.38071 5.20508 7.35172C5.14008 7.32272 5.07042 7.3078 5.00007 7.3078C4.85799 7.3078 4.72173 7.36858 4.62126 7.47678C4.5208 7.58497 4.46436 7.73171 4.46436 7.88472C4.46436 8.03773 4.5208 8.18448 4.62126 8.29267C4.72173 8.40086 4.85799 8.46165 5.00007 8.46165Z" fill="#9C283D"/>
<path d="M5 1.19231L9.04321 9.23077H0.956786L5 1.19231ZM9.9525 9.43462L9.95679 9.43231L5.31393 0.201538L5.30964 0.204231C5.28009 0.143137 5.23566 0.0918542 5.18112 0.0558768C5.12657 0.0198994 5.06396 0.000583867 5 0C4.93607 0.00054699 4.87349 0.0198048 4.81895 0.0557122C4.7644 0.0916195 4.71995 0.142825 4.69036 0.203846L4.68607 0.201538L0.0432143 9.43231L0.0475 9.435C0.0177387 9.48983 0.00139456 9.5519 0 9.61539C0 9.71739 0.0376274 9.81522 0.104605 9.88735C0.171582 9.95948 0.262423 10 0.357143 10H9.64286C9.73758 10 9.82842 9.95948 9.8954 9.88735C9.96237 9.81522 10 9.71739 10 9.61539C9.99867 9.55176 9.98232 9.48956 9.9525 9.43462Z" fill="#9C283D"/>
</svg>
