<svg width="50" height="50" viewBox="0 0 50 50" fill="none" xmlns="http://www.w3.org/2000/svg">
<circle cx="25" cy="25" r="24.5" fill="#3D253B" stroke="white"/>
<path d="M24.5 12C24.9144 12 25.3118 12.1646 25.6049 12.4576C25.8979 12.7507 26.0625 13.1481 26.0625 13.5625V22.9375H35.4375C35.8519 22.9375 36.2493 23.1021 36.5424 23.3951C36.8354 23.6882 37 24.0856 37 24.5C37 24.9144 36.8354 25.3118 36.5424 25.6049C36.2493 25.8979 35.8519 26.0625 35.4375 26.0625H26.0625V35.4375C26.0625 35.8519 25.8979 36.2493 25.6049 36.5424C25.3118 36.8354 24.9144 37 24.5 37C24.0856 37 23.6882 36.8354 23.3951 36.5424C23.1021 36.2493 22.9375 35.8519 22.9375 35.4375V26.0625H13.5625C13.1481 26.0625 12.7507 25.8979 12.4576 25.6049C12.1646 25.3118 12 24.9144 12 24.5C12 24.0856 12.1646 23.6882 12.4576 23.3951C12.7507 23.1021 13.1481 22.9375 13.5625 22.9375H22.9375V13.5625C22.9375 13.1481 23.1021 12.7507 23.3951 12.4576C23.6882 12.1646 24.0856 12 24.5 12Z" fill="white"/>
</svg>
